
<svg xmlns="http://www.w3.org/2000/svg"
	xmlns:xlink="http://www.w3.org/1999/xlink"
	viewBox="0 0 13 26">
<path d="M 12.09 0.2C 12.09 1.68 12.09 4.32 12.09 4.32 12.09 4.32 9.05 4.02 8.29 5.18 7.88 5.82 8.12 7.68 8.09 9.02 9.41 9.02 10.79 9.02 12.11 9.02 11.77 10.58 11.53 11.64 11.28 13 10.13 13 8.06 13 8.06 13 8.06 13 8.06 25.8 8.06 25.8 8.06 25.8 4.27 25.8 2.48 25.8 2.48 21.85 2.48 17.25 2.48 13.05 1.61 13.05 0.97 13.05 0.11 13.05 0.11 11.57 0.11 10.5 0.11 9.02 0.95 9.02 1.61 9.02 2.45 9.02 2.58 6.07 2.62 3.15 4.08 1.67 5.73-0 7.3 0.2 12.09 0.2Z"/></svg>