<svg 
  xmlns="http://www.w3.org/2000/svg" xmlns:xlink="http://www.w3.org/1999/xlink" viewBox="0 0 26 26">
  <path d="M 22.7 25.8C 22.7 25.8 3.5 25.8 3.5 25.8 1.73 25.8 0.3 24.37 0.3 22.6 0.3 22.6 0.3 3.4 0.3 3.4 0.3 1.63 1.73 0.2 3.5 0.2 3.5 0.2 22.7 0.2 22.7 0.2 24.47 0.2 25.9 1.63 25.9 3.4 25.9 3.4 25.9 22.6 25.9 22.6 25.9 24.37 24.47 25.8 22.7 25.8ZM 13.1 8.04C 11.1 8.04 9.39 9.22 8.6 10.92 8.6 10.92 8.6 10.92 8.6 10.92 8.59 10.94 8.58 10.96 8.58 10.97 8.53 11.08 8.49 11.19 8.45 11.3 8.43 11.35 8.41 11.4 8.39 11.45 8.35 11.56 8.32 11.68 8.29 11.79 8.28 11.84 8.26 11.9 8.25 11.95 8.23 12.07 8.21 12.19 8.19 12.32 8.19 12.37 8.17 12.42 8.17 12.47 8.15 12.64 8.14 12.82 8.14 13 8.14 15.74 10.36 17.96 13.1 17.96 15.84 17.96 18.06 15.74 18.06 13 18.06 12.82 18.05 12.64 18.03 12.47 18.03 12.42 18.01 12.37 18.01 12.32 17.99 12.19 17.97 12.07 17.95 11.95 17.93 11.9 17.92 11.84 17.91 11.79 17.88 11.68 17.85 11.56 17.81 11.45 17.79 11.4 17.77 11.35 17.75 11.3 17.71 11.19 17.67 11.08 17.62 10.97 17.62 10.96 17.61 10.94 17.6 10.92 17.6 10.92 17.6 10.92 17.6 10.92 16.81 9.22 15.1 8.04 13.1 8.04ZM 23.02 4.36C 23.02 3.65 22.45 3.08 21.74 3.08 21.74 3.08 19.18 3.08 19.18 3.08 18.47 3.08 17.9 3.65 17.9 4.36 17.9 4.36 17.9 6.92 17.9 6.92 17.9 7.63 18.47 8.2 19.18 8.2 19.18 8.2 21.74 8.2 21.74 8.2 22.45 8.2 23.02 7.63 23.02 6.92 23.02 6.92 23.02 4.36 23.02 4.36ZM 23.02 10.92C 23.02 10.92 20.66 10.92 20.66 10.92 20.84 11.58 20.94 12.28 20.94 13 20.94 17.33 17.43 20.84 13.1 20.84 8.77 20.84 5.26 17.33 5.26 13 5.26 12.28 5.36 11.58 5.54 10.92 5.54 10.92 3.18 10.92 3.18 10.92 3.18 10.92 3.18 21.64 3.18 21.64 3.18 22.35 3.75 22.92 4.46 22.92 4.46 22.92 21.74 22.92 21.74 22.92 22.45 22.92 23.02 22.35 23.02 21.64 23.02 21.64 23.02 10.92 23.02 10.92Z"/>
</svg>