
<svg xmlns="http://www.w3.org/2000/svg"
	xmlns:xlink="http://www.w3.org/1999/xlink"
	viewBox="0 0 26 22">
<path d="M 17.51 0.6C 19.55 0.56 20.63 1.31 21.66 2.25 22.54 2.17 23.68 1.68 24.35 1.34 24.57 1.22 24.79 1.1 25.01 0.98 24.62 2.02 24.1 2.83 23.3 3.45 23.13 3.59 22.95 3.77 22.73 3.86 22.73 3.86 22.73 3.87 22.73 3.87 23.87 3.86 24.81 3.35 25.7 3.07 25.7 3.07 25.7 3.07 25.7 3.08 25.23 3.82 24.6 4.58 23.92 5.12 23.65 5.34 23.37 5.56 23.1 5.77 23.11 6.98 23.08 8.13 22.86 9.15 21.54 15.04 18.07 19.04 12.57 20.76 10.59 21.37 7.4 21.63 5.14 21.07 4.01 20.79 3 20.47 2.05 20.06 1.52 19.83 1.03 19.57 0.56 19.29 0.41 19.2 0.25 19.1 0.1 19.01 0.61 19.02 1.21 19.16 1.78 19.07 2.29 18.99 2.8 19.01 3.28 18.91 4.47 18.65 5.52 18.3 6.43 17.77 6.87 17.51 7.54 17.21 7.85 16.84 7.26 16.85 6.73 16.71 6.29 16.56 4.59 15.96 3.6 14.85 2.96 13.2 3.47 13.25 4.96 13.39 5.3 13.09 4.65 13.06 4.03 12.68 3.59 12.4 2.22 11.55 1.1 10.12 1.11 7.91 1.29 7.99 1.47 8.08 1.65 8.16 1.99 8.31 2.34 8.39 2.75 8.47 2.93 8.51 3.27 8.61 3.47 8.53 3.46 8.53 3.45 8.53 3.44 8.53 3.18 8.23 2.75 8.02 2.48 7.69 1.61 6.6 0.78 4.92 1.3 2.93 1.44 2.42 1.65 1.97 1.87 1.56 1.88 1.56 1.89 1.57 1.89 1.57 2 1.79 2.22 1.94 2.37 2.12 2.82 2.68 3.37 3.18 3.93 3.62 5.85 5.12 7.58 6.04 10.35 6.72 11.05 6.89 11.87 7.03 12.71 7.03 12.47 6.34 12.55 5.23 12.73 4.56 13.2 2.89 14.22 1.68 15.71 1.04 16.06 0.88 16.46 0.77 16.87 0.68 17.09 0.65 17.3 0.63 17.51 0.6Z"/></svg>