
<svg xmlns="http://www.w3.org/2000/svg"
	xmlns:xlink="http://www.w3.org/1999/xlink"
	viewBox="0 0 21 26">
<path d="M 9.05 16.85C 8.84 17.69 8.63 18.56 8.41 19.41 8.2 20.26 8.01 21.11 7.7 21.88 7.18 23.17 6.52 24.4 5.65 25.41 5.08 26.07 5.2 25.81 5.03 25.77 4.89 25.74 4.88 25.61 4.86 25.43 4.72 24.41 4.81 23.23 4.86 22.09 4.92 20.78 5.2 19.7 5.45 18.61 5.94 16.55 6.4 14.53 6.89 12.45 6.92 12.31 7.01 12.08 6.98 12.01 6.76 11.43 6.61 10.91 6.55 10.31 6.48 9.61 6.53 8.96 6.69 8.36 6.96 7.3 7.6 6.37 8.58 6.02 9.21 5.81 9.9 5.91 10.32 6.16 10.75 6.41 11.05 6.82 11.18 7.4 11.33 8.02 11.22 8.75 11.1 9.29 10.84 10.51 10.49 11.43 10.17 12.6 10.01 13.19 9.83 13.79 9.98 14.41 10.11 14.99 10.41 15.39 10.83 15.69 11.25 16 11.75 16.17 12.45 16.15 13.68 16.1 14.53 15.32 15.1 14.58 16.01 13.39 16.57 11.79 16.78 9.89 16.84 9.28 16.89 8.57 16.85 7.88 16.76 6.59 16.36 5.56 15.72 4.76 15.11 4 14.25 3.39 13.21 3.05 12.17 2.71 10.73 2.6 9.46 2.82 7.14 3.21 5.51 4.53 4.55 6.35 4.04 7.3 3.71 8.4 3.71 9.76 3.71 10.81 3.97 11.62 4.39 12.26 4.52 12.46 4.71 12.63 4.84 12.86 5.03 13.18 4.82 13.67 4.72 14.02 4.61 14.45 4.6 15.03 4.11 15.04 3.9 15.05 3.64 14.9 3.47 14.8 2.16 14.08 1.37 12.77 1.05 11.06 0.85 10.03 0.85 8.83 1.05 7.83 1.24 6.86 1.59 5.97 1.98 5.25 2.8 3.74 3.99 2.54 5.44 1.68 6.56 1.02 7.82 0.56 9.35 0.34 9.86 0.26 10.38 0.23 10.95 0.21 12.62 0.13 14.14 0.5 15.28 1.01 16.49 1.55 17.45 2.27 18.26 3.16 19.1 4.08 19.71 5.14 20.1 6.47 20.3 7.16 20.49 7.9 20.49 8.76 20.49 9.61 20.31 10.37 20.19 11.13 19.71 13.95 18.37 16.27 16.35 17.58 15.86 17.9 15.27 18.2 14.59 18.39 13.93 18.59 13.17 18.73 12.35 18.68 11.56 18.62 10.91 18.41 10.37 18.1 9.83 17.79 9.37 17.42 9.05 16.85Z"/></svg>