<svg xmlns="http://www.w3.org/2000/svg" xmlns:xlink="http://www.w3.org/1999/xlink"><symbol id="facebook" viewBox="0 0 13 26">
<path d="M 12.09 0.2C 12.09 1.68 12.09 4.32 12.09 4.32 12.09 4.32 9.05 4.02 8.29 5.18 7.88 5.82 8.12 7.68 8.09 9.02 9.41 9.02 10.79 9.02 12.11 9.02 11.77 10.58 11.53 11.64 11.28 13 10.13 13 8.06 13 8.06 13 8.06 13 8.06 25.8 8.06 25.8 8.06 25.8 4.27 25.8 2.48 25.8 2.48 21.85 2.48 17.25 2.48 13.05 1.61 13.05 0.97 13.05 0.11 13.05 0.11 11.57 0.11 10.5 0.11 9.02 0.95 9.02 1.61 9.02 2.45 9.02 2.58 6.07 2.62 3.15 4.08 1.67 5.73-0 7.3 0.2 12.09 0.2Z"/></symbol><symbol id="glass" viewBox="0 0 18 18">
<path d="M17.317,14.983 C17.615,15.281 17.800,15.694 17.800,16.150 C17.800,17.061 17.061,17.800 16.150,17.800 C15.694,17.800 15.282,17.615 14.983,17.316 L14.983,17.316 L10.147,12.481 C9.165,13.061 8.023,13.400 6.800,13.400 C3.155,13.400 0.200,10.445 0.200,6.800 C0.200,3.155 3.155,0.200 6.800,0.200 C10.445,0.200 13.400,3.155 13.400,6.800 C13.400,8.023 13.061,9.165 12.481,10.147 L17.317,14.983 L17.317,14.983 ZM6.800,1.849 C4.066,1.849 1.850,4.066 1.850,6.800 C1.850,9.534 4.066,11.750 6.800,11.750 C9.534,11.750 11.750,9.534 11.750,6.800 C11.750,4.066 9.534,1.849 6.800,1.849 Z"/>
</symbol><symbol id="instagram" viewBox="0 0 26 26">
  <path d="M 22.7 25.8C 22.7 25.8 3.5 25.8 3.5 25.8 1.73 25.8 0.3 24.37 0.3 22.6 0.3 22.6 0.3 3.4 0.3 3.4 0.3 1.63 1.73 0.2 3.5 0.2 3.5 0.2 22.7 0.2 22.7 0.2 24.47 0.2 25.9 1.63 25.9 3.4 25.9 3.4 25.9 22.6 25.9 22.6 25.9 24.37 24.47 25.8 22.7 25.8ZM 13.1 8.04C 11.1 8.04 9.39 9.22 8.6 10.92 8.6 10.92 8.6 10.92 8.6 10.92 8.59 10.94 8.58 10.96 8.58 10.97 8.53 11.08 8.49 11.19 8.45 11.3 8.43 11.35 8.41 11.4 8.39 11.45 8.35 11.56 8.32 11.68 8.29 11.79 8.28 11.84 8.26 11.9 8.25 11.95 8.23 12.07 8.21 12.19 8.19 12.32 8.19 12.37 8.17 12.42 8.17 12.47 8.15 12.64 8.14 12.82 8.14 13 8.14 15.74 10.36 17.96 13.1 17.96 15.84 17.96 18.06 15.74 18.06 13 18.06 12.82 18.05 12.64 18.03 12.47 18.03 12.42 18.01 12.37 18.01 12.32 17.99 12.19 17.97 12.07 17.95 11.95 17.93 11.9 17.92 11.84 17.91 11.79 17.88 11.68 17.85 11.56 17.81 11.45 17.79 11.4 17.77 11.35 17.75 11.3 17.71 11.19 17.67 11.08 17.62 10.97 17.62 10.96 17.61 10.94 17.6 10.92 17.6 10.92 17.6 10.92 17.6 10.92 16.81 9.22 15.1 8.04 13.1 8.04ZM 23.02 4.36C 23.02 3.65 22.45 3.08 21.74 3.08 21.74 3.08 19.18 3.08 19.18 3.08 18.47 3.08 17.9 3.65 17.9 4.36 17.9 4.36 17.9 6.92 17.9 6.92 17.9 7.63 18.47 8.2 19.18 8.2 19.18 8.2 21.74 8.2 21.74 8.2 22.45 8.2 23.02 7.63 23.02 6.92 23.02 6.92 23.02 4.36 23.02 4.36ZM 23.02 10.92C 23.02 10.92 20.66 10.92 20.66 10.92 20.84 11.58 20.94 12.28 20.94 13 20.94 17.33 17.43 20.84 13.1 20.84 8.77 20.84 5.26 17.33 5.26 13 5.26 12.28 5.36 11.58 5.54 10.92 5.54 10.92 3.18 10.92 3.18 10.92 3.18 10.92 3.18 21.64 3.18 21.64 3.18 22.35 3.75 22.92 4.46 22.92 4.46 22.92 21.74 22.92 21.74 22.92 22.45 22.92 23.02 22.35 23.02 21.64 23.02 21.64 23.02 10.92 23.02 10.92Z"/>
</symbol><symbol id="pinterest" viewBox="0 0 21 26">
<path d="M 9.05 16.85C 8.84 17.69 8.63 18.56 8.41 19.41 8.2 20.26 8.01 21.11 7.7 21.88 7.18 23.17 6.52 24.4 5.65 25.41 5.08 26.07 5.2 25.81 5.03 25.77 4.89 25.74 4.88 25.61 4.86 25.43 4.72 24.41 4.81 23.23 4.86 22.09 4.92 20.78 5.2 19.7 5.45 18.61 5.94 16.55 6.4 14.53 6.89 12.45 6.92 12.31 7.01 12.08 6.98 12.01 6.76 11.43 6.61 10.91 6.55 10.31 6.48 9.61 6.53 8.96 6.69 8.36 6.96 7.3 7.6 6.37 8.58 6.02 9.21 5.81 9.9 5.91 10.32 6.16 10.75 6.41 11.05 6.82 11.18 7.4 11.33 8.02 11.22 8.75 11.1 9.29 10.84 10.51 10.49 11.43 10.17 12.6 10.01 13.19 9.83 13.79 9.98 14.41 10.11 14.99 10.41 15.39 10.83 15.69 11.25 16 11.75 16.17 12.45 16.15 13.68 16.1 14.53 15.32 15.1 14.58 16.01 13.39 16.57 11.79 16.78 9.89 16.84 9.28 16.89 8.57 16.85 7.88 16.76 6.59 16.36 5.56 15.72 4.76 15.11 4 14.25 3.39 13.21 3.05 12.17 2.71 10.73 2.6 9.46 2.82 7.14 3.21 5.51 4.53 4.55 6.35 4.04 7.3 3.71 8.4 3.71 9.76 3.71 10.81 3.97 11.62 4.39 12.26 4.52 12.46 4.71 12.63 4.84 12.86 5.03 13.18 4.82 13.67 4.72 14.02 4.61 14.45 4.6 15.03 4.11 15.04 3.9 15.05 3.64 14.9 3.47 14.8 2.16 14.08 1.37 12.77 1.05 11.06 0.85 10.03 0.85 8.83 1.05 7.83 1.24 6.86 1.59 5.97 1.98 5.25 2.8 3.74 3.99 2.54 5.44 1.68 6.56 1.02 7.82 0.56 9.35 0.34 9.86 0.26 10.38 0.23 10.95 0.21 12.62 0.13 14.14 0.5 15.28 1.01 16.49 1.55 17.45 2.27 18.26 3.16 19.1 4.08 19.71 5.14 20.1 6.47 20.3 7.16 20.49 7.9 20.49 8.76 20.49 9.61 20.31 10.37 20.19 11.13 19.71 13.95 18.37 16.27 16.35 17.58 15.86 17.9 15.27 18.2 14.59 18.39 13.93 18.59 13.17 18.73 12.35 18.68 11.56 18.62 10.91 18.41 10.37 18.1 9.83 17.79 9.37 17.42 9.05 16.85Z"/></symbol><symbol id="shop" viewBox="0 0 18 15">
  <path d="M17.726,3.663 L17.727,3.663 L15.252,9.163 L15.252,9.163 C15.130,9.434 14.866,9.627 14.555,9.648 L14.555,9.648 L7.427,10.123 L7.839,11.299 L15.600,11.299 C16.511,11.299 17.250,12.038 17.250,12.950 C17.250,13.861 16.511,14.600 15.600,14.600 C14.689,14.600 13.950,13.861 13.950,12.950 L6.250,12.950 C6.250,13.861 5.511,14.600 4.600,14.600 C3.689,14.600 2.950,13.861 2.950,12.950 C2.950,12.038 3.689,11.299 4.600,11.299 L6.091,11.299 L2.915,2.225 L1.025,2.225 C0.569,2.225 0.200,1.855 0.200,1.400 C0.200,0.944 0.569,0.575 1.025,0.575 L3.500,0.575 C3.860,0.575 4.163,0.807 4.276,1.128 L4.279,1.127 L4.759,2.500 L16.975,2.500 C17.431,2.500 17.800,2.869 17.800,3.325 C17.800,3.445 17.773,3.559 17.726,3.663 ZM5.337,4.150 L6.862,8.507 L13.951,8.034 L15.699,4.150 L5.337,4.150 Z"/>
</symbol><symbol id="twitter" viewBox="0 0 26 22">
<path d="M 17.51 0.6C 19.55 0.56 20.63 1.31 21.66 2.25 22.54 2.17 23.68 1.68 24.35 1.34 24.57 1.22 24.79 1.1 25.01 0.98 24.62 2.02 24.1 2.83 23.3 3.45 23.13 3.59 22.95 3.77 22.73 3.86 22.73 3.86 22.73 3.87 22.73 3.87 23.87 3.86 24.81 3.35 25.7 3.07 25.7 3.07 25.7 3.07 25.7 3.08 25.23 3.82 24.6 4.58 23.92 5.12 23.65 5.34 23.37 5.56 23.1 5.77 23.11 6.98 23.08 8.13 22.86 9.15 21.54 15.04 18.07 19.04 12.57 20.76 10.59 21.37 7.4 21.63 5.14 21.07 4.01 20.79 3 20.47 2.05 20.06 1.52 19.83 1.03 19.57 0.56 19.29 0.41 19.2 0.25 19.1 0.1 19.01 0.61 19.02 1.21 19.16 1.78 19.07 2.29 18.99 2.8 19.01 3.28 18.91 4.47 18.65 5.52 18.3 6.43 17.77 6.87 17.51 7.54 17.21 7.85 16.84 7.26 16.85 6.73 16.71 6.29 16.56 4.59 15.96 3.6 14.85 2.96 13.2 3.47 13.25 4.96 13.39 5.3 13.09 4.65 13.06 4.03 12.68 3.59 12.4 2.22 11.55 1.1 10.12 1.11 7.91 1.29 7.99 1.47 8.08 1.65 8.16 1.99 8.31 2.34 8.39 2.75 8.47 2.93 8.51 3.27 8.61 3.47 8.53 3.46 8.53 3.45 8.53 3.44 8.53 3.18 8.23 2.75 8.02 2.48 7.69 1.61 6.6 0.78 4.92 1.3 2.93 1.44 2.42 1.65 1.97 1.87 1.56 1.88 1.56 1.89 1.57 1.89 1.57 2 1.79 2.22 1.94 2.37 2.12 2.82 2.68 3.37 3.18 3.93 3.62 5.85 5.12 7.58 6.04 10.35 6.72 11.05 6.89 11.87 7.03 12.71 7.03 12.47 6.34 12.55 5.23 12.73 4.56 13.2 2.89 14.22 1.68 15.71 1.04 16.06 0.88 16.46 0.77 16.87 0.68 17.09 0.65 17.3 0.63 17.51 0.6Z"/></symbol></svg>